<svg width="800" height="1200" viewBox="0 0 800 1200" fill="none" xmlns="http://www.w3.org/2000/svg">
  <defs>
    <linearGradient id="bg" x1="400" y1="0" x2="400" y2="1200" gradientUnits="userSpaceOnUse">
      <stop stop-color="#121212"/>
      <stop offset="0.45" stop-color="#080808"/>
      <stop offset="1" stop-color="#020202"/>
    </linearGradient>
    <linearGradient id="beamA" x1="105" y1="0" x2="334" y2="829" gradientUnits="userSpaceOnUse">
      <stop stop-color="#F8F3E8" stop-opacity="0.38"/>
      <stop offset="1" stop-color="#F8F3E8" stop-opacity="0"/>
    </linearGradient>
    <linearGradient id="beamB" x1="709" y1="26" x2="480" y2="880" gradientUnits="userSpaceOnUse">
      <stop stop-color="#F7F2E8" stop-opacity="0.34"/>
      <stop offset="1" stop-color="#F7F2E8" stop-opacity="0"/>
    </linearGradient>
    <radialGradient id="halo" cx="0" cy="0" r="1" gradientUnits="userSpaceOnUse" gradientTransform="translate(402 247) rotate(90) scale(226 214)">
      <stop stop-color="#F8F3E9"/>
      <stop offset="0.38" stop-color="#D8D5CC" stop-opacity="0.4"/>
      <stop offset="1" stop-color="#111" stop-opacity="0"/>
    </radialGradient>
  </defs>

  <rect width="800" height="1200" fill="url(#bg)"/>
  <rect width="800" height="1200" fill="#000"/>
  <path d="M105 0L381 1200H309L0 180V89L105 0Z" fill="url(#beamA)"/>
  <path d="M709 26L447 1200H377L623 49L709 26Z" fill="url(#beamB)"/>
  <ellipse cx="402" cy="247" rx="132" ry="131" fill="url(#halo)"/>
  <path d="M307 695C355 633 430 592 503 592C576 592 645 633 693 695L800 1200H0L110 695C159 636 232 592 307 592Z" fill="#050505"/>
  <path d="M149 987C255 936 343 916 420 916C495 916 579 936 669 983V1200H149V987Z" fill="#090909"/>
  <path d="M24 1048C88 1016 136 1004 171 1004C207 1004 247 1021 295 1048V1200H24V1048Z" fill="#0D0D0D"/>
  <path d="M507 1046C580 1009 635 999 674 1002C714 1004 756 1020 800 1048V1200H507V1046Z" fill="#0D0D0D"/>
  <circle cx="196" cy="1014" r="19" fill="#F1ECE0" fill-opacity="0.12"/>
  <circle cx="259" cy="1041" r="24" fill="#F1ECE0" fill-opacity="0.16"/>
  <circle cx="331" cy="995" r="22" fill="#F1ECE0" fill-opacity="0.18"/>
  <circle cx="398" cy="1033" r="18" fill="#F1ECE0" fill-opacity="0.12"/>
  <circle cx="467" cy="1003" r="21" fill="#F1ECE0" fill-opacity="0.14"/>
  <circle cx="548" cy="1034" r="25" fill="#F1ECE0" fill-opacity="0.2"/>
  <circle cx="627" cy="996" r="18" fill="#F1ECE0" fill-opacity="0.14"/>
</svg>
